# xmcd CD database file
#
# Track frame offsets:
#	150
#	43653
#	51130
#	72561
#	77890
#	96601
#	102835
#	129246
#	135651
#	226256
#	232255
#	259421
#	273989
#	320689
#
# Disc length: 4486 seconds
#
# Revision: 1
# Processed by: cddbd v1.5.2PL0 Copyright (c) Steve Scherf et al.
# Submitted via: CDex 1.51
#
DISCID=d211840e
DTITLE=Various Artist - Weihnachts Blues CD01
DYEAR=2004
DGENRE=Blues
TTITLE0=Zokoprork - Klaus Lage
TTITLE1=Bluesnotes: Schmerz
TTITLE2=Die Weihnachtsfeier des Seemanss Kuttel Daddeldu - Achim Reichel
TTITLE3=Bluesnotes: Stille Nacht
TTITLE4=Der kleine Herr Jakobi feiert Weihnachten - Haindling
TTITLE5=Bluesnotes: The Bailiff
TTITLE6=erna der Baum nadelt - Gerd Köster
TTITLE7=Bluesnotes: Krempel
TTITLE8=Ein Weihnachtsgeschenk - Hannes Wader
TTITLE9=Bluesnotes: Track No 10
TTITLE10=Das Christkind und der Osterhase - Stefan Stoppok
TTITLE11=Bluesnotes: Küss mich
TTITLE12=Ladung Blautannen - Manfred Meurenbrecher
TTITLE13=Bluesnotes: Ende der Nacht
EXTD=YEAR: 2004
EXTT0=
EXTT1=
EXTT2=
EXTT3=
EXTT4=
EXTT5=
EXTT6=
EXTT7=
EXTT8=
EXTT9=
EXTT10=
EXTT11=
EXTT12=
EXTT13=
PLAYORDER=
